<svg xmlns="http://www.w3.org/2000/svg" width="1024" height="1024" viewBox="0 0 1024 1024" version="1.1"><path d="M 487.332 250.790 C 481.988 252.700, 475.987 256.752, 472.488 260.813 C 470.586 263.021, 470.213 263.082, 465.679 261.941 C 451.453 258.359, 436.363 265.627, 431.481 278.412 C 430.141 281.918, 429.086 283.167, 427.108 283.586 C 412.901 286.597, 405.256 294.690, 404.246 307.790 C 403.768 313.982, 403.401 314.852, 399.500 319.062 C 397.174 321.571, 394.770 324.561, 394.157 325.707 C 392.266 329.241, 391.664 338.431, 392.968 343.868 C 393.958 347.994, 393.898 351.820, 392.647 364.224 C 391.799 372.626, 390.838 382.681, 390.510 386.568 C 389.964 393.056, 391.175 418.040, 392.575 429.153 C 393.148 433.701, 393.093 433.821, 390.108 434.476 C 386.717 435.221, 382.335 439.818, 381.377 443.633 C 379.833 449.786, 381.791 462.455, 386.457 476.500 C 389.015 484.200, 391.732 494.633, 392.495 499.685 C 393.258 504.737, 394.567 510.196, 395.405 511.816 C 397.276 515.435, 402.319 519.791, 405.586 520.611 C 408.246 521.279, 408.588 522.275, 409.425 531.790 C 410.557 544.668, 415.387 559.496, 422.100 570.700 L 425.815 576.900 422.707 581.700 C 420.997 584.340, 415.933 592.552, 411.453 599.949 L 403.307 613.399 388.904 618.732 C 345.111 634.945, 287.313 657.356, 280.500 660.763 C 272.195 664.916, 265.741 669.133, 261.168 673.395 C 255.764 678.431, 255.474 679.608, 258.602 683.814 C 260.110 685.841, 261.452 687.648, 261.585 687.830 C 261.718 688.011, 265.073 685.434, 269.041 682.102 C 277.837 674.717, 290.428 668.417, 314 659.609 C 323.625 656.013, 340.950 649.411, 352.500 644.939 C 364.050 640.467, 378.225 635.090, 384 632.989 C 389.775 630.889, 395.238 628.878, 396.140 628.521 C 397.642 627.925, 397.662 628.397, 396.374 634.185 C 392.222 652.843, 389.048 672.008, 388.122 684 C 385.852 713.421, 385.834 711.924, 388.505 714.596 C 392.561 718.652, 395.267 717.463, 400.697 709.240 C 406.054 701.127, 419.244 687.651, 426.410 682.968 C 429.750 680.786, 432.937 679.004, 433.492 679.008 C 434.046 679.013, 436.075 681.997, 438 685.639 C 442.296 693.767, 450.668 702.640, 458 706.834 C 464.305 710.442, 467.002 710.760, 469.345 708.171 C 472.158 705.063, 471.374 702.378, 466.760 699.315 C 464.428 697.767, 459.564 693.575, 455.952 690 C 450.632 684.734, 448.757 681.981, 446.079 675.500 C 444.261 671.100, 442.319 666.938, 441.764 666.250 C 437.755 661.283, 418.291 671.799, 404.666 686.293 L 398.831 692.500 399.445 686 C 401.054 668.949, 405.311 646.290, 410.617 626.535 C 412.075 621.108, 419.181 608.157, 427.561 595.656 L 430.808 590.811 431.222 605.156 L 431.636 619.500 435.930 628.500 C 446.924 651.541, 453.324 665.902, 457.419 676.719 C 459.585 682.442, 461.301 685.032, 465.701 689.219 C 479.384 702.240, 498.107 727.111, 507.556 744.820 C 509.117 747.747, 511.248 750.597, 512.290 751.155 C 514.930 752.568, 518.465 751.465, 520.308 748.653 C 523.753 743.395, 535.217 716.244, 539.051 704.263 C 541.297 697.243, 543.496 690.595, 543.938 689.488 C 544.408 688.310, 547.179 686.476, 550.620 685.065 C 553.854 683.739, 560.124 680.961, 564.553 678.891 C 575.606 673.726, 580.636 672.556, 585.802 673.947 C 592.725 675.811, 603.987 684.012, 628.789 705.250 C 639.678 714.574, 643.405 715.324, 645.924 708.699 C 648.522 701.866, 644.781 656.963, 639.875 636.103 C 638.272 629.285, 637.205 623.462, 637.504 623.163 C 638.195 622.472, 669.828 632.991, 699 643.612 C 748.650 661.689, 753.310 663.749, 763.978 672.348 L 769.455 676.763 772.797 671.688 L 776.139 666.614 773.820 664.789 C 768.081 660.274, 756.131 653.399, 747.701 649.763 C 725.405 640.146, 654.147 614.910, 634.678 609.736 C 631.734 608.954, 629.910 607.432, 626.734 603.110 C 624.466 600.025, 618.199 591.545, 612.806 584.268 C 607.412 576.990, 603 570.602, 603 570.073 C 603 569.543, 604.584 565.954, 606.520 562.097 C 611.637 551.901, 614.084 543.034, 615.443 529.761 C 616.104 523.304, 616.838 517.872, 617.073 517.689 C 617.308 517.506, 619.638 516.131, 622.252 514.635 C 628.273 511.187, 630.510 506.896, 632.003 495.932 C 633.175 487.330, 633.963 483.722, 638.324 467 C 639.686 461.775, 641.116 454.960, 641.502 451.856 C 642.885 440.737, 637.077 429, 630.192 429 L 627.229 429 626.726 405.250 C 626.383 389.073, 625.564 376.872, 624.157 366.987 C 622.052 352.189, 618.665 336.011, 617.080 333.178 C 616.560 332.249, 616.603 330.560, 617.186 329.053 C 619.089 324.128, 618.385 315.693, 615.615 310.226 C 612.773 304.618, 608.823 301.136, 601.756 298.010 C 597.089 295.946, 596.698 295.384, 595.483 289 C 594.706 284.916, 590.910 278.717, 587.143 275.378 C 582.067 270.878, 576.835 269, 569.375 269 L 562.381 269 557.725 263.607 C 551.107 255.940, 544.771 252.988, 535.054 253.042 C 530.498 253.067, 525.538 253.780, 522.555 254.838 L 517.611 256.593 511.015 253.303 C 502.472 249.042, 494.572 248.203, 487.332 250.790 M 523.500 331.995 C 507.834 337.250, 506.979 337.351, 477.500 337.435 C 445.103 337.526, 442.545 338.007, 434.113 345.588 C 428.015 351.071, 422.648 361.290, 420.504 371.500 C 419.663 375.506, 419.027 383.944, 419.017 391.230 C 419 403.912, 418.984 403.999, 414.750 414.230 L 410.500 424.500 410.500 446 L 410.500 467.500 407.914 467.801 C 404.828 468.159, 403.761 466.934, 402.095 461.118 C 400.561 455.760, 395.009 447.043, 393.116 447.018 C 390.958 446.990, 392.304 459.081, 395.451 468 C 399.010 478.085, 402.820 493.233, 403.533 500.138 C 403.854 503.239, 404.796 506.614, 405.626 507.638 C 407.055 509.400, 407.108 509.365, 406.609 506.991 C 406.320 505.611, 405.600 499.365, 405.011 493.112 C 404.084 483.287, 404.150 481.421, 405.492 479.371 C 407.281 476.641, 412.035 476.132, 413.970 478.464 C 414.638 479.269, 415.546 482.757, 415.988 486.214 C 418.137 503.048, 423.537 523.995, 428.434 534.500 C 432.011 542.172, 438.566 551.295, 444.941 557.473 L 449.041 561.446 448.933 548.578 C 448.840 537.461, 449.082 535.356, 450.708 533.105 C 455.047 527.098, 474.094 521.080, 489 521.006 C 494.218 520.981, 496.044 520.674, 495 520 C 494.175 519.467, 492.023 519.024, 490.218 519.015 C 482.299 518.978, 477 514.004, 477 506.605 C 477 501.895, 481.039 496.957, 483.334 498.862 C 484.237 499.611, 485.024 502.132, 485.198 504.830 L 485.500 509.500 491 510 C 494.989 510.363, 497.520 511.280, 500.213 513.340 C 507.035 518.559, 514.421 517.718, 520.471 511.032 C 521.874 509.482, 523.552 509, 527.548 509 C 533.417 509, 534 508.358, 534 501.887 C 534 496.732, 536.230 495.775, 539.837 499.382 C 541.943 501.489, 542.500 503, 542.500 506.611 C 542.500 512.096, 539.681 515, 534.357 515 C 531.428 515, 524 517.294, 524 518.199 C 524 518.365, 530.862 518.500, 539.250 518.500 C 572.380 518.500, 577.033 522.133, 575.429 546.750 C 574.642 558.826, 575.420 559.580, 581.352 552.484 C 593.080 538.453, 598.898 526.025, 602.537 507.234 C 603.893 500.230, 605.452 492.328, 606.001 489.674 C 606.551 487.019, 607 483.502, 607 481.858 C 607 474.342, 612.555 470.555, 617.024 475.024 C 618.929 476.929, 619.010 477.858, 618.398 490.774 C 617.890 501.484, 618.013 504.251, 618.956 503.368 C 619.621 502.745, 620.596 498.695, 621.123 494.368 C 622.068 486.609, 624.037 477.627, 627.985 463.068 C 630.010 455.600, 630.661 443.590, 629.169 441.239 C 628.569 440.294, 627.840 440.543, 626.251 442.239 C 623.423 445.257, 619.022 454.867, 619.010 458.050 C 619.004 459.453, 618.460 461.140, 617.800 461.800 C 615.990 463.610, 611.212 463.267, 610.145 461.250 C 609.636 460.288, 609.011 451.625, 608.756 442 C 608.241 422.555, 608.193 422.355, 600.052 405.875 L 594.928 395.500 594.024 381.938 C 593.062 367.504, 591.958 363.017, 587.497 355.404 C 580.999 344.317, 574.022 339.218, 557.500 333.484 C 546.576 329.692, 532.237 329.064, 523.500 331.995 M 556.500 410.034 C 535.327 412.337, 521 419.026, 521 426.609 C 521 429.520, 523.349 435.479, 524.865 436.417 C 525.454 436.780, 530.562 435.731, 536.217 434.085 C 541.873 432.439, 551.142 430.323, 556.816 429.382 C 569.728 427.241, 576.174 428.205, 587.290 433.939 C 596.699 438.792, 597.604 438.007, 593.254 428.765 C 586.138 413.647, 575.084 408.013, 556.500 410.034 M 440.187 415.878 C 436.715 416.908, 432.215 419.082, 430.187 420.708 C 424.045 425.632, 416.827 439.501, 418.347 443.461 C 419.034 445.252, 419.330 445.131, 429.193 439.029 C 431.774 437.432, 435.599 435.650, 437.693 435.068 C 443.207 433.537, 461.209 433.824, 470.500 435.591 C 485.293 438.405, 487.166 438.494, 488.656 436.456 C 490.490 433.948, 490.356 425.953, 488.433 423.208 C 485.388 418.860, 472.195 415.364, 455.500 414.480 C 448.545 414.112, 445.065 414.430, 440.187 415.878 M 548.085 436.142 C 542.564 437.444, 537.359 440.688, 533.208 445.416 C 527.629 451.770, 529.487 452.760, 538.090 448.018 C 541.066 446.378, 543.780 445.028, 544.122 445.018 C 544.464 445.008, 545.027 446.767, 545.372 448.928 C 546.028 453.029, 549.332 456.543, 553.520 457.594 C 558.836 458.929, 566 452.875, 566 447.050 C 566 445.922, 566.294 445, 566.654 445 C 567.014 445, 570.191 446.613, 573.715 448.583 C 583.087 453.824, 585.816 452.122, 579.411 445.033 C 572.457 437.336, 559.100 433.545, 548.085 436.142 M 449.878 440.391 C 441.173 442.908, 432.015 451.033, 432.004 456.250 C 432.002 457.212, 432.243 458, 432.540 458 C 433.483 458, 441.394 453.813, 444.243 451.806 C 447.308 449.647, 449 450.116, 449 453.125 C 449 457.578, 453.982 462, 459 462 C 462.066 462, 466.763 459.312, 468.117 456.782 C 468.763 455.574, 469.257 453.328, 469.213 451.792 C 469.116 448.374, 470.041 448.340, 476.849 451.510 C 483.001 454.374, 484 454.528, 484 452.616 C 484 450.565, 476.380 444.055, 471.399 441.852 C 465.758 439.357, 455.795 438.681, 449.878 440.391 M 491.076 445.857 C 490.410 447.103, 490.437 448.996, 491.160 451.607 C 491.807 453.947, 492.090 462.084, 491.868 472 C 491.568 485.469, 491.751 488.500, 492.867 488.500 C 493.620 488.500, 495.112 486.268, 496.183 483.540 C 501.655 469.610, 501.425 449.513, 495.749 445.537 C 492.923 443.557, 492.284 443.601, 491.076 445.857 M 561.792 535.774 C 560.981 536.723, 558.639 540.311, 556.589 543.746 C 546.366 560.870, 533.140 569.333, 514.500 570.677 C 495.295 572.062, 478.951 563.598, 467.084 546.124 C 464.797 542.756, 462.501 540, 461.982 540 C 459.923 540, 459.908 545.440, 461.935 556.864 C 465.887 579.138, 468.710 585.490, 477.275 591.389 C 486.917 598.030, 496.197 599.412, 499.499 594.698 C 501.536 591.789, 501.386 588.738, 498.940 583.369 C 497.808 580.883, 497.020 577.870, 497.190 576.674 C 497.479 574.644, 497.978 574.517, 504.710 574.752 C 508.676 574.890, 514.901 574.581, 518.544 574.065 C 527.202 572.839, 528.326 573.311, 527.654 577.892 C 525.572 592.085, 525.519 591.417, 528.967 594.319 C 532.973 597.690, 534.084 597.669, 541.676 594.077 C 549.674 590.293, 555.186 584.562, 557.851 577.258 C 559.875 571.710, 565 543.460, 565 537.851 C 565 534.395, 563.693 533.549, 561.792 535.774 M 506.500 536.219 C 505.299 536.988, 499.506 537.728, 492 538.070 C 479.830 538.626, 479.976 538.643, 497.500 538.733 C 507.723 538.785, 519.173 538.265, 524 537.528 L 532.500 536.231 525.500 536.107 C 521.650 536.038, 516.250 535.747, 513.500 535.460 C 510.304 535.126, 507.778 535.400, 506.500 536.219 M 539.500 544.138 C 526.149 548.437, 504.104 550.048, 488.099 547.894 C 483.578 547.285, 479.629 547.037, 479.324 547.343 C 478.501 548.166, 483.899 552.565, 488.688 554.973 C 493.608 557.446, 504.694 559.958, 510.803 559.983 C 517.104 560.008, 528.902 557.148, 533.500 554.480 C 535.700 553.204, 539.506 550.099, 541.958 547.580 C 546.669 542.740, 546.140 542, 539.500 544.138 M 601 597.921 C 601 607.096, 600.730 608.468, 597.407 616.171 C 595.430 620.752, 592.783 626.975, 591.524 630 C 588.130 638.156, 583.105 649.794, 580.392 655.780 C 579.077 658.683, 578 661.184, 578 661.337 C 578 661.490, 580.156 661.615, 582.790 661.615 C 591.449 661.615, 605.062 669.702, 624.258 686.247 C 636.053 696.414, 634.969 696.245, 634.411 687.830 C 632.933 665.565, 631.701 653.748, 629.958 645.126 C 626.935 630.169, 624.002 619.827, 621.698 616 C 619.159 611.783, 601.892 588, 601.369 588 C 601.166 588, 601 592.464, 601 597.921 M 588.204 590.652 C 587.863 592.578, 569.245 611.638, 562.668 616.793 C 555.061 622.756, 551.022 625.100, 543.507 627.912 C 529.758 633.056, 514.440 634.728, 500.404 632.617 C 481.461 629.768, 470.363 623.872, 453.250 607.564 L 443 597.797 443 606.846 L 443 615.896 450.851 632.698 C 458.195 648.415, 465.916 665.936, 469.050 674 C 469.798 675.925, 474.716 682, 479.977 687.500 C 492.569 700.663, 506.716 719.559, 512.502 730.945 L 514.253 734.389 517.202 727.945 C 521.107 719.414, 526.994 703.649, 530.439 692.500 C 531.969 687.550, 534.029 682.363, 535.019 680.974 C 536.165 679.364, 540.876 676.685, 548.018 673.582 C 554.179 670.905, 560.248 667.767, 561.505 666.607 C 563.578 664.696, 577.199 635.116, 585.684 614.100 C 588.746 606.516, 589.044 604.912, 588.742 597.600 C 588.558 593.145, 588.315 590.018, 588.204 590.652" stroke="none" fill="#ff9800" fill-rule="evenodd"/></svg>